HIERARCHY
ROOT Hips
{
  OFFSET 0 89.5177 0.535
  CHANNELS 6 Xposition Yposition Zposition Zrotation Xrotation Yrotation
  JOINT Spine
  {
    OFFSET 12.0259 -0.162855 1.69034e-005
    CHANNELS 3 Zrotation Xrotation Yrotation
    JOINT Spine1
    {
      OFFSET 15.3169 -0.0121922 0
      CHANNELS 3 Zrotation Xrotation Yrotation
      JOINT Spine2
      {
        OFFSET 15.3176 -0.0121908 0
        CHANNELS 3 Zrotation Xrotation Yrotation
        JOINT Neck
        {
          OFFSET 19.9142 1.56338 0
          CHANNELS 3 Zrotation Xrotation Yrotation
          JOINT Head
          {
            OFFSET 6.92651 0 0
            CHANNELS 3 Zrotation Xrotation Yrotation
            End Site
            {
              OFFSET 20.7666 0 0
            }
          }
          JOINT LeftShoulder
          {
            OFFSET -6.20654 0.708824 7.28219
            CHANNELS 3 Zrotation Xrotation Yrotation
            JOINT LeftArm
            {
              OFFSET 14.108 0 -1.52588e-005
              CHANNELS 3 Zrotation Xrotation Yrotation
              JOINT LeftForeArm
              {
                OFFSET 28.5802 0 0
                CHANNELS 3 Zrotation Xrotation Yrotation
                JOINT LeftHand
                {
                  OFFSET 27.092 0 0
                  CHANNELS 3 Zrotation Xrotation Yrotation
                  End Site
                  {
                    OFFSET 9.55928 -0.186424 0.145352
                  }
                }
              }
            }
          }
          JOINT RightShoulder
          {
            OFFSET -6.20654 0.708866 -7.28218
            CHANNELS 3 Zrotation Xrotation Yrotation
            JOINT RightArm
            {
              OFFSET 14.108 0 1.52588e-005
              CHANNELS 3 Zrotation Xrotation Yrotation
              JOINT RightForeArm
              {
                OFFSET 28.5802 0 0
                CHANNELS 3 Zrotation Xrotation Yrotation
                JOINT RightHand
                {
                  OFFSET 27.092 0 0
                  CHANNELS 3 Zrotation Xrotation Yrotation
                  End Site
                  {
                    OFFSET 9.55929 -0.186417 -0.145354
                  }
                }
              }
            }
          }
        }
      }
    }
  }
  JOINT LeftUpLeg
  {
    OFFSET 0.005 -0.535 8.837
    CHANNELS 3 Zrotation Xrotation Yrotation
    JOINT LeftLeg
    {
      OFFSET 39.9035 0 0
      CHANNELS 3 Zrotation Xrotation Yrotation
      JOINT LeftFoot
      {
        OFFSET 39.6689 0 0
        CHANNELS 3 Zrotation Xrotation Yrotation
        JOINT LeftToe
        {
          OFFSET 10.1624 13.6296 0
          CHANNELS 3 Zrotation Xrotation Yrotation
          End Site
          {
            OFFSET 8.38147 0 0
          }
        }
      }
    }
  }
  JOINT RightUpLeg
  {
    OFFSET 0.005 -0.535 -8.837
    CHANNELS 3 Zrotation Xrotation Yrotation
    JOINT RightLeg
    {
      OFFSET 39.9035 0 0
      CHANNELS 3 Zrotation Xrotation Yrotation
      JOINT RightFoot
      {
        OFFSET 39.6689 0 0
        CHANNELS 3 Zrotation Xrotation Yrotation
        JOINT RightToe
        {
          OFFSET 10.1624 13.6296 0
          CHANNELS 3 Zrotation Xrotation Yrotation
          End Site
          {
            OFFSET 8.38147 0 0
          }
        }
      }
    }
  }
}
MOTION
Frames:	17
Frame Time:	0.0333333
365.604 84.5339 19.8108 77.3042 -6.79178 5.068 4.34169 -1.24875 -0.760499 8.66965 -2.55091 -1.42464 8.66965 -2.55091 -1.42465 -8.3044e-012 -9.0191e-006 -5.27751e-005 -8.9979 2.01092 2.61246 178.547 4.94059 -73.5927 -12.9295 1.68596 62.9319 -81.155 -1.59028e-015 3.18055e-015 -92.8688 -53.2807 -101.576 -178.963 5.37973 79.0756 -40.4464 0.658742 -62.5947 -93.3712 -1.59028e-015 -0 -65.3822 26.8181 56.5623 -0.626393 3.29052 179.868 -38.0822 -1.2424e-015 -7.95139e-016 22.5877 1.1257 -3.29142 90 3.97569e-016 -3.97569e-016 -2.86759 -2.79508 159.385 -43.4251 -3.18056e-015 4.77083e-015 26.0176 6.74435 -6.87816 90 3.18055e-015 -0 
364.456 84.2063 21.2363 75.7274 -4.77875 4.91729 4.42059 -1.27621 -0.69398 8.82882 -2.60156 -1.28786 8.82882 -2.60156 -1.28787 -8.30619e-012 -9.0191e-006 -5.27751e-005 -9.07759 1.18777 2.55844 178.633 4.57301 -73.3404 -13.3853 -1.44364 62.1581 -84.0603 -1.59028e-015 3.18055e-015 -89.471 -52.471 -97.1766 -179.011 4.98335 78.7656 -38.5413 0.380385 -62.1439 -95.5397 -1.59028e-015 -0 -67.7283 24.7999 57.3278 0.104856 1.43332 178.873 -40.3824 0 -7.95139e-016 23.8503 0.907096 -2.791 90 5.96354e-016 -1.59028e-015 -1.71912 -4.47471 160.118 -45.2162 3.18056e-015 -1.59028e-015 27.6042 7.32474 -10.0167 90 6.36111e-015 -3.18055e-015 
363.585 83.8695 22.2357 76.0137 -3.38541 4.83759 3.94061 -1.21472 -0.719775 7.86842 -2.47547 -1.35468 7.86842 -2.47547 -1.35469 -8.30654e-012 -9.0191e-006 -5.27751e-005 -7.58361 0.411197 2.71699 179.335 2.35742 -74.2367 -16.3711 -8.74797 60.9139 -89.4389 -1.59028e-015 -0 -85.1153 -54.9032 -91.5522 -178.819 5.84665 78.5555 -38.8114 0.679221 -61.4597 -102.866 -2.38542e-015 -3.18055e-015 -70.79 20.1696 55.3111 -0.864432 1.18865 178.686 -42.2444 9.93923e-016 7.95139e-016 24.4291 1.59985 -3.86077 90 2.48481e-017 -3.97569e-016 -1.63686 -2.98766 162.044 -46.9997 1.59028e-015 -0 29.2832 6.18698 -8.85475 90 -3.18055e-015 -3.18055e-015 
363.404 83.4789 22.8863 77.7252 -1.75829 4.58488 3.25979 -1.2233 -0.748614 6.50562 -2.48663 -1.42679 6.50562 -2.48663 -1.4268 -8.30743e-012 -9.0191e-006 -5.27751e-005 -5.61748 -0.585122 2.92934 179.798 0.752784 -74.9944 -22.0456 -19.8951 57.3577 -96.0044 -6.36111e-015 3.18055e-015 -81.7894 -55.0879 -87.1469 -178.524 6.98872 78.0417 -40.7874 4.82002 -58.7196 -110.759 7.95139e-016 -6.36111e-015 -73.951 15.5335 52.3235 -4.19357 1.71129 179.006 -44.9771 -3.97569e-016 7.95139e-016 25.1516 2.83616 -3.26189 90 0 -3.97569e-016 -4.81899 -0.505103 164.741 -51.2858 -3.18056e-015 2.38542e-015 29.5573 4.7904 -6.28016 90 0 4.77083e-015 
364.189 82.6717 23.2195 80.1166 -0.150467 4.04633 2.73009 -1.3071 -0.757869 5.44483 -2.64825 -1.45303 5.44483 -2.64825 -1.45304 -8.3065e-012 -9.0191e-006 -5.27751e-005 -5.62978 -1.61463 3.34088 -179.942 -0.239453 -76.2668 -32.2057 -34.497 50.803 -100.637 9.93923e-016 -6.36111e-015 -78.5877 -54.5485 -83.0188 -178.529 6.73426 77.6516 -42.1867 14.3158 -53.6516 -116.741 -6.16232e-015 -0 -77.1799 11.7161 50.608 -10.6539 1.84939 179.865 -50.8853 -7.95139e-016 5.96354e-016 25.2725 4.18008 -2.90978 90 2.48481e-017 -1.98785e-016 -11.295 1.7863 168.261 -56.5306 -1.59028e-015 -0 26.8693 -1.25802 5.18205 90 -3.97569e-016 3.97569e-016 
365.348 81.1067 23.4834 81.9473 0.884957 3.69156 2.61691 -1.24282 -0.828462 5.21746 -2.52157 -1.59973 5.21746 -2.52157 -1.59974 -8.30628e-012 -9.0191e-006 -5.27751e-005 -6.73419 -3.28363 4.14623 -179.836 -0.825091 -78.787 -47.5554 -49.1955 40.5386 -99.4555 3.97569e-016 -3.18055e-015 -75.7596 -55.2328 -79.7935 -178.563 6.5043 77.5118 -44.5734 27.5276 -47.0892 -118.992 4.37326e-015 -1.27222e-014 -78.9597 9.80527 49.9086 -17.0501 1.86953 -179.643 -57.5701 7.95139e-016 -0 26.3327 5.07925 -2.59638 90 0 -0 -18.3878 1.64945 171.837 -61.9047 3.97569e-016 -0 29.2898 -6.18508 8.74351 90 -2.38542e-015 -0 
366.388 78.9893 23.7556 83.568 0.878948 3.19815 2.73485 -1.12474 -0.815904 5.45504 -2.28655 -1.57753 5.45504 -2.28655 -1.57753 -8.30923e-012 -9.0191e-006 -5.27751e-005 -8.14247 -4.59498 4.25347 -179.715 -1.80436 -81.0215 -66.9397 -58.8262 23.8083 -94.7565 -1.19271e-015 9.54166e-015 -74.0369 -55.9851 -77.9253 -178.793 6.45287 79.3788 -47.9835 40.138 -42.6703 -117.854 1.59028e-015 3.18055e-015 -78.6982 10.2922 50.914 -22.3518 2.21652 -179.086 -63.5001 -1.59028e-015 4.47266e-016 29.0624 4.99742 -2.38827 90 -6.21202e-018 -1.98785e-016 -26.1129 1.40995 174.433 -67.6465 -1.19271e-015 -3.97569e-016 31.4642 -7.65002 13.8641 90 -1.59028e-015 -7.95139e-016 
366.938 76.607 24.1356 84.2295 0.909933 3.30678 3.04827 -0.982281 -1.00031 6.08033 -2.01575 -1.94727 6.08033 -2.01575 -1.94728 -8.30595e-012 -9.0191e-006 -5.27751e-005 -9.71385 -5.83914 4.37455 -179.725 -2.01407 -82.2134 -80.2488 -62.288 11.0893 -93.1705 -3.97569e-016 -0 -72.3618 -55.7431 -75.8218 -178.928 6.8158 81.0394 -50.2662 46.0124 -40.4165 -117.421 -7.95139e-016 -3.18055e-015 -78.9859 10.7412 53.4448 -25.7824 2.33228 -179.427 -68.6573 0 -3.47873e-016 32.7221 4.25341 -2.17651 90 4.65902e-018 -9.93923e-017 -30.8464 1.73016 176.901 -71.3418 0 9.93923e-017 34.7327 -9.78443 16.973 90 0 -0 
366.891 74.2563 24.6066 83.5802 1.75735 4.04563 3.58219 -1.0451 -1.20607 7.14351 -2.16282 -2.34497 7.14351 -2.16282 -2.34498 -8.30855e-012 -9.0191e-006 -5.27751e-005 -11.083 -6.55433 4.00713 -179.679 -2.24374 -81.8569 -76.1367 -63.0185 14.8411 -96.6052 1.98785e-015 -0 -71.289 -55.7174 -74.4101 -178.865 7.23928 81.0668 -51.2749 45.0078 -40.5282 -118.127 -1.88845e-015 3.18055e-015 -79.1881 10.651 53.9667 -27.58 2.09389 179.28 -73.7163 0 -1.98785e-016 35.9984 3.61614 -1.84384 90 -6.21202e-018 6.21202e-018 -34.2299 1.98701 178.053 -76.7343 3.97569e-016 9.93923e-017 36.0006 -9.55857 13.1759 90 0 -3.18055e-015 
366.51 72.1312 24.9899 82.3195 2.77246 4.34007 4.17813 -1.07134 -1.26027 8.33406 -2.23093 -2.43968 8.33406 -2.23093 -2.43969 -8.30618e-012 -9.0191e-006 -5.27751e-005 -12.0045 -7.16757 4.22392 -179.811 -1.18429 -80.9249 -57.4317 -60.2446 31.2045 -101.139 -2.38542e-015 6.36111e-015 -73.6527 -55.6722 -77.1385 -178.796 6.87775 80.0469 -49.2314 39.0849 -43.7343 -119.413 -1.39149e-015 1.27222e-014 -79.5275 10.0563 52.9639 -28.6287 1.61903 178.528 -78.8016 1.59028e-015 -0 38.6246 3.76259 -1.55727 90 6.21202e-018 2.48481e-017 -33.9345 1.49029 179.02 -80.3752 -7.95139e-016 5.96354e-016 39.1232 -6.31791 4.64137 90 -1.59028e-015 -1.59028e-015 
365.938 70.1209 25.2756 81.4466 3.44988 4.66909 4.67849 -0.839315 -1.12251 9.34131 -1.76676 -2.17308 9.34131 -1.76676 -2.17309 -8.30652e-012 -9.0191e-006 -5.27751e-005 -13.1157 -8.68186 4.13618 179.695 1.57185 -79.0221 -39.587 -51.7056 45.7477 -103.504 -1.11816e-015 3.18055e-015 -72.8244 -56.0098 -76.2823 -178.62 7.29638 79.2594 -46.9422 30.8504 -47.0382 -119.734 2.38542e-015 -3.18055e-015 -78.7535 10.6878 52.5673 -29.4956 1.73078 178.086 -83.2334 -2.38542e-015 -3.97569e-016 41.2408 3.8119 -1.29495 90 1.2424e-017 -3.97569e-016 -34.0113 2.19174 179.937 -83.9742 -1.59028e-015 -0 41.9436 -4.61911 0.0500776 90 7.95139e-016 -0 
365.27 68.4847 25.5475 80.8146 3.70392 4.81498 4.95677 -0.916271 -1.19835 9.89542 -1.93199 -2.31341 9.89542 -1.93199 -2.31342 -8.31023e-012 -9.0191e-006 -5.27751e-005 -14.3068 -8.26853 5.59795 179.57 1.91748 -77.3644 -30.0681 -40.2978 52.5484 -100.472 -1.19271e-015 -0 -75.183 -56.2699 -79.2971 -178.552 6.48685 77.385 -45.9678 22.9617 -51.0482 -116.006 -5.56597e-015 6.36111e-015 -77.7609 11.7741 52.9651 -29.7112 1.71653 177.718 -86.4454 0 1.59028e-015 43.8551 3.56859 -1.10073 90 0 -0 -34.3273 2.7278 -179.842 -87.17 -7.95139e-016 -7.95139e-016 43.3728 -3.90471 -0.414435 90 -7.95139e-016 -0 
364.463 67.3885 25.7478 80.0508 3.68608 4.48911 5.24987 -0.816502 -1.12343 10.4845 -1.73174 -2.16768 10.4845 -1.73174 -2.16769 -8.30333e-012 -9.0191e-006 -5.27751e-005 -16.2592 -8.38492 6.73528 179.325 2.78086 -76.3453 -25.0779 -33.3664 57.4768 -92.5695 -1.98785e-015 -0 -79.7732 -56.0918 -84.9211 -178.691 5.53373 76.6716 -43.2448 18.699 -55.1723 -110.172 3.57812e-015 -6.36111e-015 -76.0908 13.9075 54.1888 -29.6669 1.32078 177.71 -89.4423 -7.95139e-016 -3.97569e-016 45.1276 3.12649 -0.949942 90 -1.2424e-017 -3.97569e-016 -33.7054 2.26994 -179.522 -89.0941 0 -1.19271e-015 45.176 -3.62519 -1.54076 90 0 1.59028e-015 
363.578 66.8681 25.9384 79.4471 3.95095 4.3506 5.41751 -0.950651 -1.12674 10.8178 -2.00279 -2.15906 10.8178 -2.00279 -2.15907 -8.30954e-012 -9.0191e-006 -5.27751e-005 -18.0259 -7.83781 7.25836 178.917 4.40752 -76.1758 -22.4233 -29.844 57.2933 -90.0517 2.38542e-015 3.18055e-015 -81.8541 -55.6564 -87.6359 -179.058 3.85808 76.2644 -39.9275 18.4027 -58.227 -105.847 -1.98785e-015 9.54166e-015 -75.6765 15.0607 56.2923 -29.1082 0.68943 177.319 -91.0747 0 -0 45.8081 2.67728 -0.817733 90 -4.96962e-017 3.97569e-016 -32.5956 1.73847 -179.676 -89.9799 0 -3.97569e-016 46.5971 -3.60695 -1.90855 90 1.98785e-016 -1.59028e-015 
362.68 67.0618 26.0472 79.1822 3.21446 4.35653 5.27569 -1.05586 -1.16951 10.5317 -2.2141 -2.23746 10.5317 -2.2141 -2.23747 -8.31125e-012 -9.0191e-006 -5.27751e-005 -18.7027 -7.39453 6.81747 178.96 4.35579 -76.5536 -23.189 -31.365 53.5749 -92.3757 7.95139e-016 3.18055e-015 -80.5926 -55.5273 -86.0853 -179.089 3.73827 76.2931 -41.4319 20.2976 -57.1702 -105.456 -4.77083e-015 3.18055e-015 -75.7929 15.2984 57.0279 -27.5596 0.647275 177.16 -90.5902 3.97569e-016 -1.98785e-016 46.3414 2.12516 -0.85532 90 0 -1.98785e-016 -31.1966 2.2742 -179.262 -89.4048 7.95139e-016 -0 47.1169 -3.41578 -2.67441 90 0 3.18055e-015 
361.723 68.2325 26.1387 79.1402 1.46744 4.47553 4.95248 -0.797905 -1.14068 9.88971 -1.69068 -2.20845 9.88971 -1.69068 -2.20846 -8.30751e-012 -9.0191e-006 -5.27751e-005 -17.4266 -7.99699 5.38462 179.047 4.24552 -77.3371 -28.5121 -39.4854 47.4223 -94.3562 4.77083e-015 -3.18055e-015 -81.0129 -55.4739 -86.4706 -179.133 4.05519 77.9262 -46.2238 25.4367 -51.9647 -107.378 5.56597e-015 -3.18055e-015 -76.6243 13.5994 55.1176 -25.1193 1.15732 176.978 -88.0211 3.97569e-016 9.93923e-017 45.7074 1.14394 -0.885672 90 2.48481e-017 -0 -29.288 3.67844 -178.66 -87.052 0 -0 46.5542 -3.04488 -2.7456 90 3.10601e-018 3.18055e-015 
360.367 70.9162 26.2933 78.9878 0.099113 4.74697 4.41689 -0.664118 -1.45042 8.81659 -1.43727 -2.8456 8.81659 -1.43727 -2.84561 -8.30805e-012 -9.0191e-006 -5.27751e-005 -14.3055 -8.27732 5.54976 179.376 3.32931 -79.3808 -40.091 -50.2191 35.836 -93.8535 -7.95139e-016 -0 -81.8064 -55.3388 -87.2178 -179.466 2.60212 78.3905 -51.2222 33.7891 -44.9193 -108.665 2.78299e-015 -3.18055e-015 -76.9527 12.1893 52.2517 -20.491 1.44272 176.409 -81.4833 2.98177e-016 -0 43.8574 0.162886 -0.814915 90 6.21202e-018 -0 -25.2723 4.33895 -179.104 -81.3118 0 5.96354e-016 44.6377 -2.58624 -2.77302 90 3.10601e-018 3.18055e-015 
